# xmcd
#
# Track frame offsets: 
#        150
#        14935
#        26875
#        40717
#        57705
#        69452
#        79372
#        91555
#        110057
#        132797
#        171160
#        185907
#        195300
#        208797
#        220687
#        236497
#        248517
#        267947
#        293037
#
# Disc length: 4204 seconds
#
# Revision: 4
# Processed by: cddbd v1.5.2PL0 Copyright (c) Steve Scherf et al.
# Submitted via: ExactAudioCopyFreeDBPlugin 1.0
#
DISCID=1a106a13
DTITLE=The Who - Who's Better Who's Best
DYEAR=1988
DGENRE=Pop Rock
TTITLE0=My Generation
TTITLE1=Anyway, Anyhow, Anywhere
TTITLE2=The Kids Are Alright
TTITLE3=Substitute
TTITLE4=I'm a Boy
TTITLE5=Happy Jack
TTITLE6=Pictures of Lily
TTITLE7=I Can See for Miles
TTITLE8=Who Are You
TTITLE9=Won't Get Fooled Again
TTITLE10=Magic Bus
TTITLE11=I Can't Explain
TTITLE12=Pinball Wizard
TTITLE13=I'm Free
TTITLE14=See Me, Feel Me
TTITLE15=Squeeze Box
TTITLE16=Join Together
TTITLE17=You Better, You Bet
TTITLE18=Baba O'Riley
EXTD=
EXTT0=
EXTT1=
EXTT2=
EXTT3=
EXTT4=
EXTT5=
EXTT6=
EXTT7=
EXTT8=
EXTT9=
EXTT10=
EXTT11=
EXTT12=
EXTT13=
EXTT14=
EXTT15=
EXTT16=
EXTT17=
EXTT18=
PLAYORDER=
